<?xml version="1.0" standalone="no"?>
<svg xmlns="http://www.w3.org/2000/svg" viewBox="0 0 51 70" width="51" height="70"><g fill="#ff6506" color="#ff6506" transform="translate(3.092 0) scale(0.44) "><g transform="translate(-0.0, 9.625)"><svg width="100.0" height="100.0" x="0.0" y="-9.625" viewBox="0 -9.625 100 100"><path d="M48.667,78.042c-3.511-2.047-1.5-3-3.667-6.259s-1.833,0.759-3.667,3.759c-1.281,2.097-1.422,3.349-1.394,3.921  c4.55,0.414,9.391,0.662,14.477,0.662c0.201,0,0.397-0.006,0.598-0.007C54.365,80.08,51.714,79.818,48.667,78.042z"></path><path d="M38.5,71.542c2.167-2.833-1.333-3,2.833-7.82c0,0,0,0,0.667-9.943s0.833-1.736,4,4.229c3.166,5.966,1.667,2.534,1.667,7.867  s1.333,3,6.493,10.667c1.157,1.72,1.844,2.845,2.216,3.561c13.249-0.242,24.574-2.891,32.363-5.365  c-1.176-0.854-2.369-1.779-3.321-2.544c-3.721-2.988-5.133-7.978-5.133-7.978c2.016,0.83,7.106,4,11.332,9.562  c5.327-1.858,8.383-3.402,8.383-3.402s-16.495-44.24-18.394-44.24S68.694,14.869,68.062,14.869s-3.283-5.539-7.317-5.917  C56.744,8.577,54.875,0,50,0c-3.203,0-6.125,3.125-8.75,6.5c-1.434,1.843-6.5,10-13.875,12.375C22.227,20.533,0,70.375,0,70.375  s12.807,5.565,32.871,8.286C33.954,77.315,36.776,73.797,38.5,71.542z M60.125,61c-0.624-1.124-3.698-15.433-3.875-16.25  l1.125-1.625c0,0,1.041,0.166,1.38,1.625s-0.423,3.374,0,5s4.12,9,4.12,9l5.213,8.75C68.088,67.5,60.749,62.124,60.125,61z   M75.531,48.555c0.531-1.555,2.41-0.287,2.658-1.202s-1.139-8.3-0.633-8.545s7.303,7.585,7.342,8.545s-3.131,2.692-3.671,3.607  s7.985,8.753,2.785,6.709S75,50.109,75.531,48.555z M51.844,15.154c0.28-1.23-0.029-2.636-0.199-3.234  c-0.002,0.028-0.021-0.031-0.082-0.232c-0.044-0.143,0.005-0.035,0.082,0.232c0.004-0.117-0.298-1.76,0.745-1.608  c1.298,0.188,13.274,16.658,13.4,17.61s-1.052,1.101-1.052,1.101l1.052,10.347c0,0,1.387,1.756,2.298,0.881s1.256,4.12,0,4.622  s-1.531,2.091-1.531,2.091s-1.072-0.73-2.106-2.201s-4.892-17.904-5.838-18.271s-1.905,1.293-2.968,0.88s-6.465-8.676-6.222-11.336  S51.438,16.934,51.844,15.154z M16.038,60.15c-1.212,0.088-8.35,9.662-4.177-2.911s4.503-10.307,5.696-13.038  s1.831,10.662,1.898,11.898S17.25,60.062,16.038,60.15z M26.544,31.135c1.044-2.115,10.019-10.697,10.633-10.76s0.011,6-1.013,6.959  s-3.227,0.479-4.304,1.522s-5.316,16.835-5.316,16.835S25.5,33.25,26.544,31.135z M29.052,56.022  c-0.136-2.54,9.511-18.397,10.886-19.24s-0.375,3.968-1.266,7.469s-5.422,8.124-5.443,15.442S29.188,58.562,29.052,56.022z"></path></svg></g></g><path fill="#ffffff" fill-rule="nonzero" d="M0 16.94L0 0.14L6.84 0.14Q9.50 0.14 11.54 1.21Q13.58 2.28 14.71 4.19Q15.84 6.10 15.84 8.54L15.84 8.54Q15.84 10.99 14.71 12.90Q13.58 14.81 11.54 15.88Q9.50 16.94 6.84 16.94L6.84 16.94L0 16.94ZM1.78 15.41L6.74 15.41Q8.95 15.41 10.61 14.53Q12.26 13.66 13.18 12.11Q14.09 10.56 14.09 8.54L14.09 8.54Q14.09 6.53 13.18 4.98Q12.26 3.43 10.61 2.56Q8.95 1.68 6.74 1.68L6.74 1.68L1.78 1.68L1.78 15.41ZM27.12 17.09Q24.62 17.09 22.62 15.98Q20.62 14.88 19.48 12.92Q18.34 10.97 18.34 8.54L18.34 8.54Q18.34 6.12 19.48 4.16Q20.62 2.21 22.63 1.10Q24.65 0 27.14 0L27.14 0Q29.02 0 30.60 0.62Q32.18 1.25 33.29 2.45L33.29 2.45L32.16 3.58Q30.19 1.58 27.19 1.58L27.19 1.58Q25.20 1.58 23.57 2.50Q21.94 3.41 21.01 4.99Q20.09 6.58 20.09 8.54L20.09 8.54Q20.09 10.51 21.01 12.10Q21.94 13.68 23.57 14.59Q25.20 15.50 27.19 15.50L27.19 15.50Q30.22 15.50 32.16 13.49L32.16 13.49L33.29 14.62Q32.18 15.82 30.59 16.45Q28.99 17.09 27.12 17.09L27.12 17.09ZM44.02 17.09Q41.52 17.09 39.52 15.98Q37.51 14.88 36.37 12.92Q35.23 10.97 35.23 8.54L35.23 8.54Q35.23 6.12 36.37 4.16Q37.51 2.21 39.53 1.10Q41.54 0 44.04 0L44.04 0Q45.91 0 47.50 0.62Q49.08 1.25 50.18 2.45L50.18 2.45L49.06 3.58Q47.09 1.58 44.09 1.58L44.09 1.58Q42.10 1.58 40.46 2.50Q38.83 3.41 37.91 4.99Q36.98 6.58 36.98 8.54L36.98 8.54Q36.98 10.51 37.91 12.10Q38.83 13.68 40.46 14.59Q42.10 15.50 44.09 15.50L44.09 15.50Q47.11 15.50 49.06 13.49L49.06 13.49L50.18 14.62Q49.08 15.82 47.48 16.45Q45.89 17.09 44.02 17.09L44.02 17.09Z" transform="translate(0, 52)"></path></svg>