<?xml version="1.0" standalone="no"?>
<svg xmlns="http://www.w3.org/2000/svg" viewBox="0 0 107.63999999999999 110.78202669303015" width="107.63999999999999" height="110.78202669303015"><rect fill="none" stroke="#FBFFF1" stroke-width="4" width="103.63999999999999" height="106.78202669303015" x="2" y="2"></rect><g fill="#FBFFF1" color="#FBFFF1" transform="translate(28.82 12) scale(0.5149119)"><svg width="97.104" height="84.096" x="0.0" y="0.0" viewBox="0 0 97.104 84.096"><g><g><path d="M72.392,42.298l-23.84-41.3l-23.84,41.3l-23.85,41.3h47.69h47.69L72.392,42.298z M48.122,22.628l-15.5,11.86l7.98-13.75    l7.99-13.74l7.91,13.79l7.91,13.78L48.122,22.628z"></path></g></g></svg></g><path fill="#FBFFF1" fill-rule="nonzero" d="M0 28.24L0 0.24L11.40 0.24Q15.84 0.24 19.24 2.02Q22.64 3.80 24.52 6.98Q26.40 10.16 26.40 14.24L26.40 14.24Q26.40 18.32 24.52 21.50Q22.64 24.68 19.24 26.46Q15.84 28.24 11.40 28.24L11.40 28.24L0 28.24ZM2.96 25.68L11.24 25.68Q14.92 25.68 17.68 24.22Q20.44 22.76 21.96 20.18Q23.48 17.60 23.48 14.24L23.48 14.24Q23.48 10.88 21.96 8.30Q20.44 5.72 17.68 4.26Q14.92 2.80 11.24 2.80L11.24 2.80L2.96 2.80L2.96 25.68ZM45.20 28.48Q41.04 28.48 37.70 26.64Q34.36 24.80 32.46 21.54Q30.56 18.28 30.56 14.24L30.56 14.24Q30.56 10.20 32.46 6.94Q34.36 3.68 37.72 1.84Q41.08 0 45.24 0L45.24 0Q48.36 0 51 1.04Q53.64 2.08 55.48 4.08L55.48 4.08L53.60 5.96Q50.32 2.64 45.32 2.64L45.32 2.64Q42 2.64 39.28 4.16Q36.56 5.68 35.02 8.32Q33.48 10.96 33.48 14.24L33.48 14.24Q33.48 17.52 35.02 20.16Q36.56 22.80 39.28 24.32Q42 25.84 45.32 25.84L45.32 25.84Q50.36 25.84 53.60 22.48L53.60 22.48L55.48 24.36Q53.64 26.36 50.98 27.42Q48.32 28.48 45.20 28.48L45.20 28.48ZM73.36 28.48Q69.20 28.48 65.86 26.64Q62.52 24.80 60.62 21.54Q58.72 18.28 58.72 14.24L58.72 14.24Q58.72 10.20 60.62 6.94Q62.52 3.68 65.88 1.84Q69.24 0 73.40 0L73.40 0Q76.52 0 79.16 1.04Q81.80 2.08 83.64 4.08L83.64 4.08L81.76 5.96Q78.48 2.64 73.48 2.64L73.48 2.64Q70.16 2.64 67.44 4.16Q64.72 5.68 63.18 8.32Q61.64 10.96 61.64 14.24L61.64 14.24Q61.64 17.52 63.18 20.16Q64.72 22.80 67.44 24.32Q70.16 25.84 73.48 25.84L73.48 25.84Q78.52 25.84 81.76 22.48L81.76 22.48L83.64 24.36Q81.80 26.36 79.14 27.42Q76.48 28.48 73.36 28.48L73.36 28.48Z" transform="translate(12 70.303) scale(1)"></path></svg>